<?xml version='1.0' encoding='utf-8'?>
<svg xmlns="http://www.w3.org/2000/svg" width="13in" height="18in" version="1.1" style="shape-rendering:geometricPrecision; text-rendering:geometricPrecision; image-rendering:optimizeQuality; fill-rule:evenodd; clip-rule:evenodd" viewBox="0 0 13000 18000"> <defs> <style type="text/css">  .fil0 {fill:#0C0C06}  </style> </defs> <g id="Layer_x0020_1"> <metadata id="CorelCorpID_0Corel-Layer"/> <path class="fil0" d="M5205 2959c148,-11 341,196 352,325l-253 7c-60,-120 -119,-197 -99,-332zm-86 327c-213,0 -269,-65 -329,-260 -41,-132 -157,-304 -71,-428 42,-61 198,-100 257,91 91,294 36,186 76,369 17,79 56,153 67,229zm-482 -62c-98,3 -196,-38 -293,-67 -55,-17 -78,-32 -120,-69 -62,-55 -44,-35 -110,-78 -272,-179 -200,-525 8,-493 137,21 225,-1 313,171 38,74 196,473 201,537zm-935 -363c-135,-10 -326,-259 -405,-374 84,-73 249,-111 293,44 30,106 93,249 113,331zm824 -298l-85 -101 196 -13c-28,50 -61,90 -111,115zm-764 -40l-6 -154c85,-20 122,-4 186,54 -58,61 -87,113 -180,99zm-679 -372l164 69 -76 74c-48,-36 -100,-81 -88,-143zm4965 276c-62,147 -425,478 -561,572 -120,83 -215,168 -343,244 -126,75 -269,131 -385,202 -200,123 -595,294 -826,323 -835,105 -1121,212 -2007,-6 -160,-39 -289,-104 -437,-145 -196,-55 -247,-116 -418,-195 -257,-118 -476,-310 -619,-556 -194,-333 -320,-344 -405,-785 -21,-108 23,-374 133,-429 119,-59 230,126 353,190 399,209 327,385 384,497 115,225 502,581 731,735 204,137 599,293 836,358 361,97 725,57 1090,52 417,-5 1478,-311 1833,-545 95,-63 634,-509 641,-512zm296 -329c29,-95 111,-189 203,-227 -51,68 -133,197 -203,227zm-4825 1771c-229,23 -892,-369 -1102,-507 -462,-304 -864,-773 -1185,-1226 -123,-174 -197,-341 -307,-510 -218,-332 360,-526 483,-621 105,-81 134,-189 177,-223l243 339c66,93 258,251 281,316 -85,145 -188,108 -229,317 -17,89 -57,149 -57,211 0,48 38,163 48,227 56,359 182,472 352,756 171,285 336,346 562,549 187,168 646,297 734,372zm2246 -601c-310,-461 -497,-432 -573,-583 -23,-45 -20,-83 -51,-140l-85 -116c152,-74 223,-8 402,-119 79,-49 102,-57 191,-83l689 -380c46,-34 114,-90 161,-116 186,181 82,280 506,355 185,33 523,-38 689,-119 100,-48 353,-98 568,-292 76,-68 146,-138 226,-213 87,-81 130,-209 222,-199 -185,226 -326,473 -520,699 -94,110 -538,543 -647,612l-1033 540c-95,35 -156,41 -238,74 -193,78 -300,92 -510,81zm1382 -2099c45,-8 40,28 85,61 62,46 62,9 123,57l-174 45c-61,-66 -81,-84 -35,-163zm-6057 -182c94,-183 261,-271 273,-632 177,144 -88,583 -273,632zm6292 -489c22,-72 8,-53 67,-91l66 47c-55,43 -56,46 -132,44zm-6654 637c-25,-158 -13,-111 48,-217 97,-167 226,-450 419,-513 76,174 -266,679 -467,730zm7599 -824c-19,182 -276,426 -431,497 -130,60 -152,116 -283,174 -160,71 -94,53 -141,91 -55,44 -129,57 -183,-2 -107,-116 -16,-419 376,-478 542,-83 430,-152 662,-281zm-7648 348c-23,-259 -76,-365 53,-605 53,-98 341,-306 461,-205 56,47 61,243 46,313 -35,161 -162,49 -386,330 -75,95 -98,94 -174,167zm7889 -964c-10,172 -69,134 -169,270 -186,255 -653,563 -791,367 -71,-101 -47,-228 19,-321 113,-158 194,-48 377,-99 87,-24 185,-27 262,-59 107,-45 209,-141 302,-158zm-1185 -204c-106,755 -348,1539 -963,2038 -326,264 -564,401 -951,562 -541,225 -721,192 -1298,174 -284,-8 -359,-90 -593,-148 -966,-240 -778,-295 -1395,-869 -358,-333 -422,-460 -587,-921 -143,-398 -185,-906 -153,-1327 30,-404 192,-769 341,-1140 109,-272 424,-667 638,-874 291,-282 567,-412 924,-586 321,-156 946,-163 1302,-155 253,6 939,203 1187,304 334,137 611,397 838,669 60,72 134,117 188,192 48,67 108,156 152,226 122,193 179,305 222,532 66,342 194,999 149,1323zm-6703 348c5,-275 326,-872 552,-657 52,50 52,177 30,248 -54,179 -206,181 -393,280 -62,33 -136,110 -188,129zm284 -822c22,-128 119,-143 198,-54l-198 54zm319 -181c-73,-1 -112,-26 -172,-60 26,-88 123,-167 209,-192l-38 252zm1255 4803c-118,63 -286,-92 -380,-164 -298,-226 -769,-525 -1003,-779l-411 -470c-56,-60 -74,-128 -117,-196 -79,-125 -182,-194 -258,-331 -66,-119 -188,-256 -236,-373 -123,-299 -214,-639 -224,-976 -8,-294 92,-741 203,-1001 146,-341 205,-458 475,-717 135,-129 579,-467 763,-410 31,206 -194,190 -451,575 -470,702 -609,1780 -307,2554 24,61 44,119 78,173 98,153 14,187 261,535 128,180 312,454 470,600 200,186 269,390 503,544 117,77 192,138 297,230 77,67 242,145 337,207zm4712 -6005l155 -20c5,131 7,129 -60,225 -82,-40 -126,-117 -95,-205zm-5848 -89c65,65 66,57 38,156 -84,15 -78,8 -154,-22 -2,-94 21,-133 116,-134zm164 -74l227 20c-5,15 -140,237 -206,399 -19,46 -9,22 -35,69 -31,54 -2,17 -39,69 -440,-59 -333,21 -495,91 -411,179 -594,363 -832,739l-153 200c42,-191 102,-367 161,-550 28,-88 50,-187 78,-278l246 -467c48,-82 101,-132 147,-208 98,-161 196,-268 299,-412 198,1 376,107 497,265l-160 29c-131,34 -246,250 -97,342 93,58 188,68 279,7 121,-81 95,-186 83,-316zm5639 -860c114,49 305,798 124,863 -52,19 -241,-40 -189,-337 62,-350 29,-280 64,-526zm-344 567l117 6 -18 95 -99 -101zm1445 -207c29,120 59,205 91,329 80,314 266,702 275,1017 8,265 46,554 10,814 -32,235 -223,376 -337,541 -138,18 -206,28 -346,60 -89,20 -303,7 -413,14 -8,-143 4,-226 8,-361 4,-119 -15,-249 -14,-378 2,-165 -79,-533 -61,-633 108,-18 -34,33 206,-4 193,-30 384,-233 470,-412 78,-161 154,-567 131,-752 -11,-92 -77,-164 -21,-235zm-7035 38c213,-21 471,10 655,114 20,89 6,78 -22,162 -357,104 -439,-108 -489,-153 -64,-57 -101,-54 -144,-123zm5228 -177c39,-35 93,-75 149,-88 2,129 32,131 41,229l-190 -141zm-5354 103c115,-198 883,-475 1065,-201 246,369 -732,126 -743,125 -167,-4 -191,46 -322,75zm378 -358c54,-94 449,-238 571,-276 134,-41 211,-6 329,51 127,61 222,76 171,238 -170,64 -494,-119 -810,-75 -94,13 -173,60 -262,62zm6639 -360c83,-11 397,525 447,617 480,875 716,1644 649,2661 -67,1007 -475,1587 -1292,2136 -176,118 -672,284 -882,280 -126,-3 -355,-56 -373,-204 -42,-354 593,1 1175,-512 612,-540 839,-1057 1002,-1846 40,-194 3,-294 4,-488 1,-371 7,-640 -114,-1002 -95,-285 -150,-585 -271,-861 -113,-259 -248,-523 -346,-779zm-5941 -59c22,-21 -24,-6 53,-33l222 -30c98,-13 195,-26 292,-41 148,-23 531,9 368,220 -224,291 -395,23 -934,-116zm1332 -44c-89,75 -249,117 -246,-65 88,-4 180,8 246,65zm2539 221c-346,95 -232,-477 7,-475 50,99 17,364 -7,475zm849 689c-193,-92 -157,-370 -155,-553 1,-131 -27,-179 -47,-303 -18,-110 -56,-174 -69,-259 179,47 481,530 373,811 -42,110 -29,214 -101,305zm990 -1101l-36 -58 36 58zm-8164 4220c-8,-23 -36,-431 -47,-516 -55,-417 34,-1205 144,-1593 230,-810 682,-1673 1353,-2168 451,-332 1251,-622 1773,-560 277,33 663,75 869,283 79,80 239,255 158,368 -99,138 -305,24 -440,1 -386,-66 -635,-106 -1030,-37 -292,51 -619,139 -874,298 -524,326 -1381,1441 -1571,1951 -178,478 -322,928 -325,1446 -1,139 42,409 -11,527zm6396 -4593c128,33 290,293 334,421 64,189 168,446 24,609 -87,98 -154,59 -206,-48 -52,-109 -29,-238 -30,-352 -1,-76 -11,-275 -28,-344 -20,-83 -108,-217 -94,-285zm-459 729c-111,-12 -229,-84 -353,-103 -291,-44 -427,-105 -761,-123l-388 -6c62,-149 25,-315 -63,-442 -138,-198 -107,-143 -300,-265 -192,-122 -171,-148 -422,-167 -127,-10 -178,-1 -295,4 -89,4 -167,-15 -253,-16 62,-57 6,-2 165,-76 339,-157 1803,76 2148,165 227,59 461,140 690,198 70,154 110,261 2,421 -46,69 -93,94 -131,164 -54,99 -24,148 -39,248zm-4001 -884c103,-155 676,-412 862,-489 515,-212 548,-161 1069,-292 476,-120 756,-136 1250,-122 426,12 1239,208 1613,450 149,97 321,134 458,212 231,132 576,419 715,649 90,149 196,274 247,444 47,159 123,360 151,517 49,275 93,955 -99,1176 -106,121 -232,326 -408,258 -202,-78 -33,-279 10,-424 104,-350 -4,-785 -142,-1104 -64,-149 -141,-337 -215,-476 -100,-189 -190,-215 -316,-354 -211,-233 -519,-459 -820,-541 -78,-21 -189,-61 -261,-96 -148,-73 -125,-38 -269,-68 -84,-17 -162,-68 -242,-91 -72,-20 -208,-29 -292,-42 -1265,-203 -1656,-248 -2859,188 -152,55 -268,149 -452,205zm2494 -1124c-554,79 -1400,263 -1892,524 -410,217 -1166,689 -1470,1024 -97,108 -169,237 -264,344 -124,139 -188,178 -278,354 -589,1146 -820,1462 -760,2958 16,408 88,712 138,1104 28,218 43,289 136,488 72,154 101,312 169,461 165,359 810,1112 1111,1384 452,409 928,804 1525,968 705,194 1482,326 2215,275 1494,-104 2384,-431 3383,-1610 497,-586 673,-798 964,-1531 210,-529 390,-1552 341,-2114 -78,-878 -521,-1957 -1056,-2671 -522,-697 -678,-715 -1307,-1188 -177,-133 -605,-341 -817,-440 -578,-272 -1510,-421 -2138,-331z"/> <path class="fil0" d="M5836 2576l-25 107c-104,30 -185,-66 -189,-165 72,-6 143,14 213,58zm-256 -196c-294,56 -75,622 248,467 233,-112 230,-558 -248,-467z"/> <path class="fil0" d="M5558 -4219c-158,108 -366,-47 -151,-238 136,31 175,96 151,238zm-143 -356c-477,177 -160,543 56,547 360,7 238,-656 -56,-547z"/> <path class="fil0" d="M1437 1342c-25,74 -62,62 -98,-6 55,-31 38,-35 98,6zm-81 -200c-118,54 -193,124 -169,278 23,151 156,197 297,163 290,-70 75,-533 -128,-441z"/> <path class="fil0" d="M7867 -515c-36,-107 -37,-162 60,-215 53,69 68,132 38,227l-97 -12zm249 -14c130,-223 -289,-562 -397,-205 -110,365 248,458 397,205z"/> <path class="fil0" d="M4486 -2535l212 42 193 -275c264,-40 375,224 365,454 -12,265 -183,362 -393,432l46 304c103,54 251,12 404,102 170,99 111,178 130,357 57,537 56,348 68,957 5,272 5,1102 -249,1267 -135,88 -252,50 -349,-69l177 -109c-88,-751 -912,-357 -420,391 114,174 436,250 628,128 833,-533 818,-2211 535,-2766 -255,-499 -255,-342 -457,-466 110,-211 252,-284 245,-560 -11,-470 -335,-841 -852,-740 -305,60 -303,276 -282,550z"/> <path class="fil0" d="M3401 1480c150,44 497,70 615,-58 22,-162 -24,-91 -54,-230 -38,-176 -33,-1424 -46,-1488 -42,-213 -16,-359 -42,-572 -46,-383 -24,-811 -19,-1199 3,-215 6,-362 27,-577 10,-111 82,-486 66,-538 -647,-230 -493,386 -479,809 23,700 -45,1828 -42,2642l2 947c-9,120 -45,132 -28,263z"/> </g> </svg>